<svg xmlns="http://www.w3.org/2000/svg" version="1.1" xmlns:xlink="http://www.w3.org/1999/xlink" xmlns:svgjs="http://svgjs.com/svgjs" width="1450" height="559" preserveAspectRatio="none" viewBox="0 0 1450 559"><g mask="url(&quot;#SvgjsMask1062&quot;)" fill="none"><rect width="1450" height="559" x="0" y="0" fill="#0e2a47"></rect><path d="M224 136L223 -206" stroke-width="6" stroke="url(#SvgjsLinearGradient1063)" stroke-linecap="round" class="Down"></path><path d="M7 259L6 -137" stroke-width="10" stroke="url(#SvgjsLinearGradient1064)" stroke-linecap="round" class="Up"></path><path d="M701 542L700 709" stroke-width="6" stroke="url(#SvgjsLinearGradient1064)" stroke-linecap="round" class="Up"></path><path d="M911 60L910 -268" stroke-width="10" stroke="url(#SvgjsLinearGradient1064)" stroke-linecap="round" class="Up"></path><path d="M208 412L207 73" stroke-width="10" stroke="url(#SvgjsLinearGradient1064)" stroke-linecap="round" class="Up"></path><path d="M603 371L602 542" stroke-width="8" stroke="url(#SvgjsLinearGradient1064)" stroke-linecap="round" class="Up"></path><path d="M1117 169L1116 467" stroke-width="6" stroke="url(#SvgjsLinearGradient1064)" stroke-linecap="round" class="Up"></path><path d="M344 140L343 353" stroke-width="6" stroke="url(#SvgjsLinearGradient1063)" stroke-linecap="round" class="Down"></path><path d="M926 437L925 259" stroke-width="10" stroke="url(#SvgjsLinearGradient1064)" stroke-linecap="round" class="Up"></path><path d="M1241 113L1240 -212" stroke-width="6" stroke="url(#SvgjsLinearGradient1064)" stroke-linecap="round" class="Up"></path><path d="M1394 78L1393 -189" stroke-width="8" stroke="url(#SvgjsLinearGradient1064)" stroke-linecap="round" class="Up"></path><path d="M242 344L241 633" stroke-width="6" stroke="url(#SvgjsLinearGradient1063)" stroke-linecap="round" class="Down"></path><path d="M909 490L908 103" stroke-width="10" stroke="url(#SvgjsLinearGradient1063)" stroke-linecap="round" class="Down"></path><path d="M694 304L693 461" stroke-width="10" stroke="url(#SvgjsLinearGradient1064)" stroke-linecap="round" class="Up"></path><path d="M1047 85L1046 385" stroke-width="6" stroke="url(#SvgjsLinearGradient1063)" stroke-linecap="round" class="Down"></path><path d="M1038 74L1037 -156" stroke-width="10" stroke="url(#SvgjsLinearGradient1063)" stroke-linecap="round" class="Down"></path><path d="M1410 555L1409 766" stroke-width="6" stroke="url(#SvgjsLinearGradient1064)" stroke-linecap="round" class="Up"></path><path d="M850 89L849 -249" stroke-width="10" stroke="url(#SvgjsLinearGradient1064)" stroke-linecap="round" class="Up"></path><path d="M33 252L32 -141" stroke-width="8" stroke="url(#SvgjsLinearGradient1064)" stroke-linecap="round" class="Up"></path><path d="M449 451L448 265" stroke-width="10" stroke="url(#SvgjsLinearGradient1063)" stroke-linecap="round" class="Down"></path><path d="M329 239L328 56" stroke-width="8" stroke="url(#SvgjsLinearGradient1064)" stroke-linecap="round" class="Up"></path><path d="M77 105L76 359" stroke-width="10" stroke="url(#SvgjsLinearGradient1063)" stroke-linecap="round" class="Down"></path><path d="M324 236L323 57" stroke-width="8" stroke="url(#SvgjsLinearGradient1063)" stroke-linecap="round" class="Down"></path><path d="M590 79L589 -321" stroke-width="8" stroke="url(#SvgjsLinearGradient1063)" stroke-linecap="round" class="Down"></path><path d="M956 220L955 523" stroke-width="6" stroke="url(#SvgjsLinearGradient1064)" stroke-linecap="round" class="Up"></path><path d="M158 65L157 411" stroke-width="6" stroke="url(#SvgjsLinearGradient1064)" stroke-linecap="round" class="Up"></path><path d="M901 210L900 -209" stroke-width="6" stroke="url(#SvgjsLinearGradient1063)" stroke-linecap="round" class="Down"></path><path d="M1130 175L1129 -75" stroke-width="6" stroke="url(#SvgjsLinearGradient1064)" stroke-linecap="round" class="Up"></path><path d="M270 104L269 -251" stroke-width="6" stroke="url(#SvgjsLinearGradient1064)" stroke-linecap="round" class="Up"></path><path d="M1290 27L1289 354" stroke-width="10" stroke="url(#SvgjsLinearGradient1064)" stroke-linecap="round" class="Up"></path><path d="M85 218L84 410" stroke-width="10" stroke="url(#SvgjsLinearGradient1063)" stroke-linecap="round" class="Down"></path><path d="M778 206L777 -112" stroke-width="8" stroke="url(#SvgjsLinearGradient1064)" stroke-linecap="round" class="Up"></path><path d="M837 129L836 493" stroke-width="6" stroke="url(#SvgjsLinearGradient1063)" stroke-linecap="round" class="Down"></path><path d="M3 303L2 484" stroke-width="8" stroke="url(#SvgjsLinearGradient1063)" stroke-linecap="round" class="Down"></path><path d="M1072 142L1071 537" stroke-width="8" stroke="url(#SvgjsLinearGradient1064)" stroke-linecap="round" class="Up"></path><path d="M316 47L315 -286" stroke-width="10" stroke="url(#SvgjsLinearGradient1064)" stroke-linecap="round" class="Up"></path><path d="M785 43L784 351" stroke-width="6" stroke="url(#SvgjsLinearGradient1064)" stroke-linecap="round" class="Up"></path></g><defs><mask id="SvgjsMask1062"><rect width="1450" height="559" fill="#ffffff"></rect></mask><linearGradient x1="0%" y1="0%" x2="0%" y2="100%" id="SvgjsLinearGradient1063"><stop stop-color="rgba(28, 83, 142, 0)" offset="0"></stop><stop stop-color="#1c538e" offset="1"></stop></linearGradient><linearGradient x1="0%" y1="100%" x2="0%" y2="0%" id="SvgjsLinearGradient1064"><stop stop-color="rgba(28, 83, 142, 0)" offset="0"></stop><stop stop-color="#1c538e" offset="1"></stop></linearGradient></defs></svg>